<svg width="15" height="15" viewBox="0 0 15 15" fill="none" xmlns="http://www.w3.org/2000/svg">
<path d="M1.16681 6.21709C2.7638 9.69534 5.60548 12.4608 9.13843 13.9599L9.70476 14.2123C11.0004 14.7895 12.5236 14.351 13.3138 13.173L14.0539 12.0699C14.2945 11.7113 14.2213 11.2283 13.8851 10.9571L11.3753 8.93225C11.0066 8.63485 10.4645 8.70412 10.1825 9.08467L9.40606 10.1324C7.41372 9.1496 5.79618 7.53205 4.81339 5.53971L5.8611 4.76328C6.24165 4.48126 6.31092 3.93917 6.01351 3.57051L3.98862 1.06056C3.7175 0.724493 3.23458 0.651187 2.87594 0.891661L1.76524 1.63641C0.579956 2.43117 0.143805 3.96687 0.734415 5.266L1.16616 6.21568L1.16681 6.21709Z" fill="white"/>
</svg>
