<svg width="16" height="21" viewBox="0 0 16 21" fill="none" xmlns="http://www.w3.org/2000/svg">
<path d="M5 8.00001C5.01036 7.20758 5.32976 6.45052 5.89014 5.89014C6.45051 5.32976 7.20757 5.01037 8 5.00001C8.79243 5.01037 9.54949 5.32976 10.1099 5.89014C10.6702 6.45052 10.9896 7.20758 11 8.00001C10.9896 8.79243 10.6702 9.54949 10.1099 10.1099C9.54949 10.6702 8.79243 10.9896 8 11C7.20757 10.9896 6.45051 10.6702 5.89014 10.1099C5.32976 9.54949 5.01036 8.79243 5 8.00001ZM8 17L12 18V14.92C10.7937 15.6465 9.40802 16.0206 8 16C6.59198 16.0206 5.20632 15.6465 4 14.92V18M8 2.00001C7.21197 1.98563 6.42932 2.13257 5.70017 2.4318C4.97102 2.73102 4.31076 3.17622 3.76 3.74001C3.19011 4.29137 2.73977 4.95411 2.43699 5.68698C2.13421 6.41985 1.98546 7.20718 2 8.00001C1.98958 8.78781 2.14033 9.56942 2.44299 10.2968C2.74565 11.0243 3.19383 11.6821 3.76 12.23C4.3082 12.7992 4.96729 13.25 5.69657 13.5544C6.42584 13.8588 7.2098 14.0105 8 14C8.7902 14.0105 9.57416 13.8588 10.3034 13.5544C11.0327 13.25 11.6918 12.7992 12.24 12.23C12.8062 11.6821 13.2543 11.0243 13.557 10.2968C13.8597 9.56942 14.0104 8.78781 14 8.00001C14.0145 7.20718 13.8658 6.41985 13.563 5.68698C13.2602 4.95411 12.8099 4.29137 12.24 3.74001C11.6892 3.17622 11.029 2.73102 10.2998 2.4318C9.57068 2.13257 8.78803 1.98563 8 2.00001ZM16 8.00001C15.9787 8.95989 15.7857 9.90819 15.43 10.8C15.1096 11.7074 14.6248 12.5481 14 13.28V21L8 19L2 21V13.28C0.705689 11.8265 -0.00649957 9.94628 -3.64613e-07 8.00001C-0.0176252 6.95059 0.180037 5.9087 0.580782 4.93865C0.981528 3.96861 1.57685 3.091 2.33 2.36001C3.0637 1.6001 3.94536 0.998639 4.92056 0.592736C5.89576 0.186833 6.9438 -0.0148942 8 6.25046e-06C9.0562 -0.0148942 10.1042 0.186833 11.0794 0.592736C12.0546 0.998639 12.9363 1.6001 13.67 2.36001C14.4231 3.091 15.0185 3.96861 15.4192 4.93865C15.82 5.9087 16.0176 6.95059 16 8.00001Z" fill="white"/>
</svg>
