<svg width="21" height="21" viewBox="0 0 21 21" fill="none" xmlns="http://www.w3.org/2000/svg">
<path d="M16 20.5H6V7.5L13 0.5L14.25 1.75C14.3667 1.86667 14.4627 2.025 14.538 2.225C14.6133 2.425 14.6507 2.61667 14.65 2.8V3.15L13.55 7.5H19C19.5333 7.5 20 7.7 20.4 8.1C20.8 8.5 21 8.96667 21 9.5V11.5C21 11.6167 20.9877 11.7417 20.963 11.875C20.9383 12.0083 20.9007 12.1333 20.85 12.25L17.85 19.3C17.7 19.6333 17.45 19.9167 17.1 20.15C16.75 20.3833 16.3833 20.5 16 20.5ZM4 7.5V20.5H0V7.5H4Z" fill="white" fill-opacity="0.8"/>
</svg>
