<svg width="68" height="67" viewBox="0 0 68 67" fill="none" xmlns="http://www.w3.org/2000/svg">
<path d="M34 0.166687C15.6667 0.166687 0.666687 15.1667 0.666687 33.5C0.666687 51.8334 15.6667 66.8334 34 66.8334C52.3334 66.8334 67.3334 51.8334 67.3334 33.5C67.3334 15.1667 52.3334 0.166687 34 0.166687ZM34 60.1667C19.3 60.1667 7.33335 48.2 7.33335 33.5C7.33335 18.8 19.3 6.83335 34 6.83335C48.7 6.83335 60.6667 18.8 60.6667 33.5C60.6667 48.2 48.7 60.1667 34 60.1667ZM49.3 18.7667L27.3334 40.7334L18.7 32.1334L14 36.8334L27.3334 50.1667L54 23.5L49.3 18.7667Z" fill="#34D399"/>
</svg>
